<?xml version="1.0" encoding="UTF-8"?>
<svg version="1.1" xmlns="http://www.w3.org/2000/svg" width="788" height="509">
<path d="M0 0 C1.43215207 0.36102443 2.85808642 0.74746301 4.27734375 1.15625 C4.99728516 1.3315625 5.71722656 1.506875 6.45898438 1.6875 C9.54889201 2.51377057 11.86933203 3.34627663 14.265625 5.49609375 C15.50857966 8.32471072 15.13400015 9.76074049 14.33984375 12.71875 C13.26307121 16.67943977 13.26307121 16.67943977 14.21484375 20.65625 C16.85825246 21.9520612 16.85825246 21.9520612 20.02734375 22.90625 C21.08566406 23.26203125 22.14398438 23.6178125 23.234375 23.984375 C26.86522772 24.84908078 26.86522772 24.84908078 30.21484375 23.65625 C31.50114753 21.38125124 31.50114753 21.38125124 32.33984375 18.65625 C34.0261645 13.75058962 34.0261645 13.75058962 36.21484375 12.65625 C43.06133897 13.09258164 49.21520456 14.61661663 55.75732422 16.61206055 C56.77175095 16.91468307 57.78617767 17.2173056 58.8313446 17.52909851 C62.16718461 18.52629338 65.49958428 19.53449866 68.83203125 20.54296875 C71.17242588 21.24525285 73.51301567 21.94688688 75.85379028 22.64790344 C82.01346226 24.49469566 88.17021936 26.35103086 94.32647705 28.20916748 C99.30541533 29.7102214 104.28636682 31.20452382 109.26745415 32.69842815 C115.26883671 34.49847917 121.26931593 36.30153116 127.26953125 38.10546875 C128.39006771 38.44229864 129.51060417 38.77912853 130.66509628 39.12616539 C137.85273898 41.28855892 145.03560335 43.46613392 152.21484375 45.65625 C153.16715126 45.94525303 154.11945877 46.23425606 155.10062408 46.53201675 C157.78554631 47.34890885 160.46761788 48.17450674 163.14892578 49.00317383 C164.33963338 49.36382824 164.33963338 49.36382824 165.55439568 49.73176861 C170.98506676 51.42647301 170.98506676 51.42647301 173.21484375 53.65625 C173.4959449 58.43496948 172.98450814 62.94205561 172.21484375 67.65625 C174.10518135 68.35871995 176.00241203 69.04265849 177.90234375 69.71875 C178.95808594 70.10160156 180.01382813 70.48445313 181.1015625 70.87890625 C184.38176063 71.69792686 186.09570635 71.96409884 189.21484375 70.65625 C190.50911748 68.1291257 191.15858801 65.63415975 191.9296875 62.90625 C193.21484375 60.65625 193.21484375 60.65625 195.8515625 59.69140625 C199.95028828 59.64856243 203.29981834 60.68718049 207.08984375 62.09375 C207.77820313 62.33673828 208.4665625 62.57972656 209.17578125 62.83007812 C210.85986728 63.42652526 212.53801135 64.03970475 214.21484375 64.65625 C215.40804569 69.58282777 214.84225517 73.20681634 213.35424805 77.94311523 C213.1420097 78.65466263 212.92977135 79.36621002 212.71110153 80.09931946 C211.99917688 82.47499087 211.26911305 84.84468553 210.5390625 87.21484375 C210.02481805 88.91803475 209.51175016 90.62158136 208.99977112 92.32545471 C207.89523869 95.99261804 206.78273583 99.65723149 205.66394043 103.32006836 C203.88357043 109.14907432 202.12054207 114.98323304 200.36035156 120.81835938 C198.20978243 127.94375066 196.05517768 135.06789637 193.89544487 142.19051552 C188.53114747 159.8842224 183.23850699 177.59914434 177.95354462 195.316679 C176.03166261 201.75928701 174.10598957 208.20075219 172.17822266 214.64160156 C167.61472857 229.89164942 163.05956041 245.14357567 158.578125 260.41796875 C157.91319154 262.67776545 157.24815778 264.93753264 156.58300781 267.19726562 C155.42339104 271.1373602 154.2741437 275.08024797 153.13183594 279.02539062 C152.64038245 280.69803674 152.14855112 282.37057192 151.65625 284.04296875 C151.44817215 284.77376144 151.2400943 285.50455414 151.02571106 286.25749207 C149.93513062 289.92628897 148.76385901 292.7728468 146.21484375 295.65625 C130.95908768 294.24367999 130.95908768 294.24367999 126.02734375 289.59375 C124.80721025 285.18249812 125.49423115 281.12752093 126.21484375 276.65625 C118.53353334 273.15256458 118.53353334 273.15256458 110.21484375 272.65625 C109.94929687 273.29433594 109.68375 273.93242187 109.41015625 274.58984375 C109.05695313 275.41613281 108.70375 276.24242187 108.33984375 277.09375 C107.99179687 277.91746094 107.64375 278.74117188 107.28515625 279.58984375 C106.21484375 281.65625 106.21484375 281.65625 104.21484375 282.65625 C97.36834853 282.21991836 91.21448294 280.69588337 84.67236328 278.70043945 C83.65793655 278.39781693 82.64350983 278.0951944 81.5983429 277.78340149 C78.26250289 276.78620662 74.93010322 275.77800134 71.59765625 274.76953125 C69.25726162 274.06724715 66.91667183 273.36561312 64.57589722 272.66459656 C58.41622524 270.81780434 52.25946814 268.96146914 46.10321045 267.10333252 C41.12427217 265.6022786 36.14332068 264.10797618 31.16223335 262.61407185 C25.16085079 260.81402083 19.16037157 259.01096884 13.16015625 257.20703125 C11.47935156 256.70178641 11.47935156 256.70178641 9.76459122 256.18633461 C2.57694852 254.02394108 -4.60591585 251.84636608 -11.78515625 249.65625 C-12.73746376 249.36724697 -13.68977127 249.07824394 -14.67093658 248.78048325 C-17.35585881 247.96359115 -20.03793038 247.13799326 -22.71923828 246.30932617 C-23.51304335 246.06888989 -24.30684841 245.82845362 -25.12470818 245.58073139 C-30.55537926 243.88602699 -30.55537926 243.88602699 -32.78515625 241.65625 C-32.76171875 238.8359375 -32.76171875 238.8359375 -32.41015625 235.53125 C-32.29929687 234.43554688 -32.1884375 233.33984375 -32.07421875 232.2109375 C-31.93113281 230.94636719 -31.93113281 230.94636719 -31.78515625 229.65625 C-37.94620465 226.43570197 -41.81813115 225.52226875 -48.78515625 225.65625 C-49.20087891 226.61337891 -49.20087891 226.61337891 -49.625 227.58984375 C-50.16833984 228.82927734 -50.16833984 228.82927734 -50.72265625 230.09375 C-51.08230469 230.91746094 -51.44195312 231.74117187 -51.8125 232.58984375 C-52.78515625 234.65625 -52.78515625 234.65625 -53.78515625 235.65625 C-60.29967618 235.18246673 -69.0063068 234.43509945 -73.78515625 229.65625 C-74.02278915 223.37819988 -71.96523619 217.12769127 -70.14672852 211.19287109 C-69.87571351 210.28593884 -69.60469851 209.37900658 -69.32547092 208.44459152 C-68.42484045 205.43736465 -67.51321092 202.43359083 -66.6015625 199.4296875 C-65.95551172 197.28022806 -65.31017329 195.1305544 -64.66549683 192.98068237 C-62.9287774 187.19572276 -61.18272083 181.41361985 -59.435009 175.63197327 C-57.61575882 169.60760221 -55.80532263 163.58058486 -53.99438477 157.55371094 C-51.40579585 148.941032 -48.81480726 140.32908278 -46.22065258 131.71807861 C-41.83494675 117.1589072 -37.47001298 102.59363714 -33.12109375 88.0234375 C-32.82354879 87.02667873 -32.52600384 86.02991997 -32.21944237 85.00295639 C-30.77255538 80.1556622 -29.32605371 75.30825317 -27.87985229 70.46075439 C-26.26162898 65.03667516 -24.64293135 59.61273776 -23.02368164 54.18896484 C-22.77007905 53.33933733 -22.51647646 52.48970982 -22.25518894 51.61433601 C-21.04572451 47.56366739 -19.83434588 43.51359107 -18.61836243 39.46487427 C-18.16855559 37.96682733 -17.71878161 36.46877053 -17.26904297 34.97070312 C-17.0544641 34.25610365 -16.83988523 33.54150417 -16.61880398 32.80525017 C-15.27480781 28.31951499 -13.96153659 23.8257824 -12.66455078 19.32617188 C-12.34776871 18.2426947 -12.03098663 17.15921753 -11.7046051 16.04290771 C-11.13997656 14.10996128 -10.58489821 12.17418225 -10.04234314 10.23492432 C-6.84207541 -0.62136495 -6.84207541 -0.62136495 0 0 Z M50.51293945 43.63085938 C48.90278981 47.38353463 47.62297127 51.15478963 46.4453125 55.0625 C46.2006575 55.86482056 45.9560025 56.66714111 45.70393372 57.49377441 C45.19188595 59.18369129 44.68362931 60.874761 44.17895508 62.56689453 C43.4033779 65.15280195 42.60359361 67.73042133 41.80273438 70.30859375 C41.3070897 71.9552772 40.812899 73.60239914 40.3203125 75.25 C40.07878952 76.01783813 39.83726654 76.78567627 39.58842468 77.57678223 C38.67095818 80.73050069 38.15317773 83.24827876 38.64697266 86.51513672 C40.91554221 89.61313657 43.64796713 90.29919732 47.1953125 91.3203125 C48.35283272 91.67955307 48.35283272 91.67955307 49.53373718 92.04605103 C51.35262095 92.60634819 53.17467495 93.15640776 54.9989624 93.69885254 C58.63645349 94.7817671 62.26477297 95.89362648 65.89306641 97.00683594 C73.22790455 99.25167603 80.57395469 101.45795009 87.92358398 103.65380859 C91.79431174 104.81053757 95.66225707 105.97630597 99.52966022 107.14409447 C102.53343075 108.0494942 105.5390215 108.94872645 108.54515648 109.846241 C109.97353296 110.27379811 111.40124147 110.70359372 112.82824135 111.13572311 C114.81110557 111.73550212 116.79637462 112.3265533 118.7824707 112.91552734 C119.90732376 113.25272797 121.03217682 113.58992859 122.19111633 113.93734741 C125.02844079 114.61193199 127.31711639 114.92135832 130.21484375 114.65625 C133.72055106 111.49835384 134.63507687 106.73918639 135.9140625 102.34765625 C136.15397415 101.54392075 136.3938858 100.74018524 136.6410675 99.91209412 C137.14504197 98.21627329 137.6448902 96.51922142 138.14086914 94.82104492 C138.8996099 92.22809276 139.67437744 89.64032785 140.45117188 87.05273438 C140.93976827 85.40132722 141.42742997 83.74964318 141.9140625 82.09765625 C142.26086311 80.94119347 142.26086311 80.94119347 142.6146698 79.7613678 C144.34482145 74.27762425 144.34482145 74.27762425 144.21484375 68.65625 C140.98682174 66.42169698 137.8710863 65.07111084 134.11865234 63.97387695 C133.12505707 63.67959305 132.13146179 63.38530914 131.10775757 63.08210754 C130.03708038 62.77270737 128.9664032 62.46330719 127.86328125 62.14453125 C126.73580475 61.81261276 125.60832825 61.48069427 124.44668579 61.13871765 C120.82963176 60.07547754 117.20984494 59.02190712 113.58984375 57.96875 C111.23939255 57.27994757 108.88913023 56.59050026 106.5390625 55.90039062 C103.01140612 54.86460794 99.48329504 53.83057943 95.95330811 52.80276489 C89.8346676 51.02037374 83.72610019 49.21079442 77.62988281 47.35302734 C75.78953964 46.79581245 75.78953964 46.79581245 73.91201782 46.2273407 C71.57236034 45.51767511 69.23464941 44.80154928 66.89926147 44.07795715 C65.84663116 43.7598558 64.79400085 43.44175446 63.70947266 43.11401367 C62.79034088 42.83176437 61.87120911 42.54951508 60.92422485 42.25871277 C55.14394152 40.85394432 55.14394152 40.85394432 50.51293945 43.63085938 Z M3.57421875 48.8515625 C1.9439777 51.01584803 1.23779855 52.93633031 0.46484375 55.53125 C0.201875 56.37429687 -0.06109375 57.21734375 -0.33203125 58.0859375 C-0.84567951 60.99956298 -0.74907158 62.85994119 0.21484375 65.65625 C6.03698338 68.67513722 10.70600491 69.77905828 17.21484375 69.65625 C19.79808069 65.07687542 22.11780186 59.99355377 22.21484375 54.65625 C20.7668825 51.93702786 19.69458926 50.87089407 16.875 49.609375 C15.58916016 49.26132812 15.58916016 49.26132812 14.27734375 48.90625 C13.42269531 48.66390625 12.56804687 48.4215625 11.6875 48.171875 C7.42781643 47.23953734 7.42781643 47.23953734 3.57421875 48.8515625 Z M-9.91015625 93.71875 C-12.74562078 98.16097776 -14.67161904 103.33747326 -13.78515625 108.65625 C-10.87670614 111.30091045 -8.04262248 112.42099499 -4.28515625 113.46875 C-3.34671875 113.74332031 -2.40828125 114.01789063 -1.44140625 114.30078125 C1.15037961 114.80453987 1.15037961 114.80453987 3.40625 114.16015625 C6.20296656 111.83459281 6.67254237 109.23388343 7.65234375 105.78125 C8.20728516 103.92886719 8.20728516 103.92886719 8.7734375 102.0390625 C9.51157063 98.74490753 9.51157063 98.74490753 8.12109375 96.3203125 C5.88111488 94.36492111 4.140361 93.68120204 1.27734375 92.90625 C0.42269531 92.66390625 -0.43195313 92.4215625 -1.3125 92.171875 C-6.06551184 91.15577613 -6.06551184 91.15577613 -9.91015625 93.71875 Z M162.21484375 95.65625 C160.95497556 98.26738564 160.95497556 98.26738564 160.02734375 101.40625 C159.68316406 102.45296875 159.33898437 103.4996875 158.984375 104.578125 C158.27211752 107.42715493 158.05820622 109.73955116 158.21484375 112.65625 C166.88076051 117.12922207 166.88076051 117.12922207 176.21484375 116.65625 C177.47471194 114.04511436 177.47471194 114.04511436 178.40234375 110.90625 C178.74652344 109.85953125 179.09070313 108.8128125 179.4453125 107.734375 C180.15756998 104.88534507 180.37148128 102.57294884 180.21484375 99.65625 C171.46390784 95.38853905 171.46390784 95.38853905 162.21484375 95.65625 Z M29.21484375 113.65625 C27.88547647 116.52015738 27.01841733 119.49840662 26.12890625 122.5234375 C25.86347015 123.39517609 25.59803406 124.26691467 25.32455444 125.16506958 C24.76806394 127.00717899 24.21879816 128.8514843 23.67626953 130.69775391 C22.84298131 133.52062112 21.97788541 136.33232899 21.109375 139.14453125 C20.57227 140.93691719 20.03704989 142.72986927 19.50390625 144.5234375 C19.24364655 145.36317108 18.98338684 146.20290466 18.71524048 147.06808472 C17.70000798 150.59710642 17.08088678 152.96610642 17.78833008 156.61083984 C19.58999937 159.19416782 20.73797578 159.64722096 23.75 160.515625 C24.75998047 160.81871582 25.76996094 161.12180664 26.81054688 161.43408203 C27.95458984 161.75489746 29.09863281 162.07571289 30.27734375 162.40625 C32.16529821 162.9612201 34.05322872 163.51627292 35.94076538 164.07266235 C37.39534324 164.49952682 38.85081792 164.92334366 40.30703735 165.34457397 C47.13288645 167.32039825 53.92917704 169.38837706 60.72436333 171.4669342 C64.59663649 172.64981028 68.47130658 173.82480658 72.34605122 174.9995575 C75.60744525 175.98854707 78.86787211 176.98048788 82.12625122 177.97937012 C85.83929593 179.116778 89.55802249 180.23484184 93.27734375 181.3515625 C94.4064769 181.70004242 95.53561005 182.04852234 96.69895935 182.40756226 C98.27109947 182.87508408 98.27109947 182.87508408 99.875 183.35205078 C100.78902588 183.62912872 101.70305176 183.90620667 102.64477539 184.19168091 C105.51381771 184.71029294 107.43502915 184.49523503 110.21484375 183.65625 C114.85401034 177.76220355 116.32989471 168.29048152 118.41674805 161.1171875 C119.0294705 159.02398453 119.66372983 156.93806947 120.29882812 154.8515625 C120.69534148 153.50299482 121.09056919 152.15404832 121.484375 150.8046875 C122.01961792 148.99750244 122.01961792 148.99750244 122.56567383 147.15380859 C123.27549336 143.3294857 122.84265439 140.46720432 122.21484375 136.65625 C110.90695632 133.26305498 99.59819405 129.87279344 88.28829384 126.48631287 C83.03713658 124.91387743 77.78629035 123.3404189 72.53613281 121.76464844 C67.47294674 120.24503569 62.40897283 118.72807622 57.34443283 117.21298218 C55.40878149 116.63340415 53.47341987 116.05285764 51.53834915 115.47134399 C48.83572574 114.65934815 46.13210865 113.85074861 43.42822266 113.04296875 C42.62189896 112.79984955 41.81557526 112.55673035 40.9848175 112.3062439 C34.50888646 110.16193632 34.50888646 110.16193632 29.21484375 113.65625 Z M-23.78515625 137.65625 C-24.80353485 139.89265243 -24.80353485 139.89265243 -25.47265625 142.46875 C-25.72402344 143.32082031 -25.97539062 144.17289063 -26.234375 145.05078125 C-26.80374662 147.7441917 -27.09751639 149.91744007 -26.78515625 152.65625 C-24.59039869 155.95977782 -21.56515821 156.53592812 -17.84765625 157.46875 C-16.80738281 157.74332031 -15.76710938 158.01789063 -14.6953125 158.30078125 C-11.86642832 158.83432685 -11.86642832 158.83432685 -9.515625 158.02734375 C-6.09143018 155.3142684 -5.63386369 150.76776604 -4.78515625 146.65625 C-4.52953284 143.23781289 -4.52953284 143.23781289 -4.78515625 140.65625 C-14.20851567 135.60462979 -14.20851567 135.60462979 -23.78515625 137.65625 Z M149.21484375 139.65625 C148.17365024 142.35748724 147.3115553 144.94439435 146.52734375 147.71875 C146.18993164 148.85666992 146.18993164 148.85666992 145.84570312 150.01757812 C145.29106325 151.89391304 144.75152077 153.77469855 144.21484375 155.65625 C146.55963806 158.37529487 148.60770137 159.37668025 152.02734375 160.40625 C152.85878906 160.66921875 153.69023437 160.9321875 154.546875 161.203125 C157.6767169 161.73469405 160.12975052 161.32281029 163.21484375 160.65625 C163.9431573 158.60072045 164.64679073 156.53643467 165.33984375 154.46875 C165.73429687 153.32019531 166.12875 152.17164063 166.53515625 150.98828125 C167.40535047 147.75444192 167.40535047 147.75444192 166.734375 144.87890625 C164.5653472 141.7062152 162.43418002 141.30043514 158.77734375 140.28125 C157.62363281 139.94351563 156.46992188 139.60578125 155.28125 139.2578125 C152.19173886 138.39009455 152.19173886 138.39009455 149.21484375 139.65625 Z M-36.78515625 181.65625 C-39.53546682 186.69506526 -40.14507963 192.01745032 -39.78515625 197.65625 C-31.5812191 202.03543821 -31.5812191 202.03543821 -22.7265625 201.96484375 C-20.14366143 200.2238541 -19.83808314 198.81904021 -19.03515625 195.84375 C-18.7928125 194.99167969 -18.55046875 194.13960937 -18.30078125 193.26171875 C-17.25697053 188.41180781 -17.25697053 188.41180781 -18.9140625 183.95703125 C-21.41687154 182.21708258 -23.77031613 181.58457206 -26.72265625 180.84375 C-27.76292969 180.56917969 -28.80320312 180.29460937 -29.875 180.01171875 C-33.07353233 179.62102554 -34.25207864 179.70069121 -36.78515625 181.65625 Z M10.21484375 180.65625 C8.06856352 185.47437446 6.27293386 190.29958993 4.734375 195.34765625 C4.51665939 196.05599106 4.29894379 196.76432587 4.07463074 197.49412537 C3.61966707 198.98005885 3.16683714 200.4666472 2.71606445 201.95385742 C2.02731976 204.21882891 1.3254737 206.47947425 0.62304688 208.74023438 C0.1801827 210.19246252 -0.26190147 211.6449288 -0.703125 213.09765625 C-0.91245163 213.76656387 -1.12177826 214.4354715 -1.33744812 215.12464905 C-2.51875346 219.07818333 -2.99730111 222.53554508 -2.78515625 226.65625 C1.32512258 228.82797109 5.30734235 230.43023 9.76074219 231.75341797 C10.69892036 232.03463501 10.69892036 232.03463501 11.65605164 232.3215332 C13.71055037 232.93587008 15.76730171 233.54225167 17.82421875 234.1484375 C19.2748091 234.58013814 20.72526657 235.01228552 22.17559814 235.44485474 C25.21747417 236.35089128 28.26039007 237.25331147 31.30419922 238.15283203 C35.1515485 239.28984865 38.99704667 240.43296755 42.8418808 241.57845688 C57.92836608 246.07247366 73.01606259 250.553828 88.21484375 254.65625 C91.71466771 251.5105091 92.63399275 247.88723104 93.9140625 243.48046875 C94.15397415 242.67768997 94.3938858 241.87491119 94.6410675 241.04780579 C95.14571407 239.35040319 95.64553644 237.65155991 96.14086914 235.95141602 C96.89761897 233.35992999 97.67318038 230.77463093 98.45117188 228.18945312 C98.93994273 226.53679525 99.42760929 224.8838103 99.9140625 223.23046875 C100.26086311 222.07704231 100.26086311 222.07704231 100.6146698 220.90031433 C102.75080192 213.73626566 102.75080192 213.73626566 101.21484375 206.65625 C99.23184692 205.80630455 99.23184692 205.80630455 96.77563477 205.11914062 C95.82322906 204.83091431 94.87082336 204.54268799 93.88955688 204.24572754 C92.84319061 203.93776245 91.79682434 203.62979736 90.71875 203.3125 C89.63451752 202.9868103 88.55028503 202.66112061 87.43319702 202.32556152 C83.88349326 201.26143646 80.33056302 200.20857117 76.77734375 199.15625 C74.35278375 198.43283512 71.92838618 197.70887561 69.50415039 196.984375 C64.66854404 195.54085601 59.83150963 194.10227907 54.99316406 192.66796875 C49.92220294 191.16448668 44.85416961 189.65163094 39.78840637 188.1307373 C36.62797348 187.18251362 33.46611529 186.23913049 30.30368042 185.29760742 C28.87673351 184.87220539 27.45023389 184.44529989 26.02420044 184.0168457 C24.07762323 183.43297371 22.12871785 182.85688012 20.1796875 182.28125 C19.11355225 181.96414062 18.04741699 181.64703125 16.94897461 181.3203125 C14.03594763 180.49890518 14.03594763 180.49890518 10.21484375 180.65625 Z M136.21484375 183.65625 C134.14235847 188.93166708 132.16416645 194.05524608 131.21484375 199.65625 C134.09219929 203.55854592 138.64606764 204.6971846 143.21484375 205.65625 C145.72483385 205.61510262 147.75223097 205.23260618 150.21484375 204.65625 C150.9431573 202.60072045 151.64679073 200.53643467 152.33984375 198.46875 C152.73429687 197.32019531 153.12875 196.17164063 153.53515625 194.98828125 C154.29051381 191.28529277 154.2169534 189.83240129 152.21484375 186.65625 C147.33551287 183.74455153 141.76769519 183.30181267 136.21484375 183.65625 Z M123.21484375 227.65625 C120.84560965 232.71779558 118.59720957 238.01908535 118.21484375 243.65625 C120.49479561 247.07617779 121.22980289 247.2676852 125.02734375 248.34375 C125.87941406 248.59511719 126.73148438 248.84648437 127.609375 249.10546875 C130.2614709 249.66610671 132.51438518 249.88785022 135.21484375 249.65625 C139.02577802 245.40559254 139.87714603 239.07345142 141.21484375 233.65625 C137.89558916 229.89442814 133.98575013 228.82463523 129.21484375 227.65625 C125.83827725 227.40173332 125.83827725 227.40173332 123.21484375 227.65625 Z " fill="#0D0D0D" transform="translate(326.78515625,12.34375)"/>
<path d="M0 0 C5.4738099 5.95679313 6.24915408 13.26767083 6.25439453 21.01464844 C6.25702301 21.99356804 6.25702301 21.99356804 6.25970459 22.99226379 C6.26408332 25.13549507 6.26120058 27.27864298 6.2578125 29.421875 C6.25848636 30.91448991 6.25945707 32.40710471 6.26071167 33.89971924 C6.26218297 37.01990814 6.26005113 40.14006834 6.25537109 43.26025391 C6.24965431 47.26762023 6.25296866 51.27491987 6.25894356 55.28228378 C6.26254765 58.36023466 6.26141164 61.43816957 6.25881577 64.51612091 C6.2581471 65.99457049 6.25897283 67.47302151 6.26129532 68.95146942 C6.26382149 71.01032897 6.25998273 73.06907839 6.25439453 75.12792969 C6.25359894 76.30087585 6.25280334 77.47382202 6.25198364 78.68231201 C6.125 81.3125 6.125 81.3125 5.125 82.3125 C3.6362814 82.39919432 2.143555 82.41953494 0.65234375 82.41015625 C-0.24677734 82.40693359 -1.14589844 82.40371094 -2.07226562 82.40039062 C-3.49055664 82.38782227 -3.49055664 82.38782227 -4.9375 82.375 C-6.3615918 82.36823242 -6.3615918 82.36823242 -7.81445312 82.36132812 C-10.16803065 82.3495011 -12.52148477 82.33302025 -14.875 82.3125 C-14.8904612 81.15738167 -14.8904612 81.15738167 -14.90623474 79.97892761 C-15.00417727 72.72472643 -15.10668711 65.47061104 -15.21433926 58.21654797 C-15.26952396 54.48708726 -15.32293681 50.75761864 -15.37231445 47.02807617 C-15.42002374 43.42945357 -15.47236887 39.83092563 -15.52794075 36.23241615 C-15.54833457 34.85891385 -15.56705255 33.48538562 -15.58407402 32.11183739 C-15.60818357 30.18932515 -15.63878238 28.26689759 -15.66967773 26.34448242 C-15.69299416 24.70234016 -15.69299416 24.70234016 -15.71678162 23.02702332 C-15.76235656 20.21627896 -15.76235656 20.21627896 -16.875 17.3125 C-19.73278033 16.62756627 -19.73278033 16.62756627 -22.875 16.3125 C-26.12349977 18.03476496 -26.12349977 18.03476496 -26.875 21.3125 C-26.99191241 23.29029184 -27.05172996 25.27164755 -27.08032227 27.25268555 C-27.10026749 28.47372482 -27.12021271 29.6947641 -27.14076233 30.95280457 C-27.15747482 32.27162125 -27.17418732 33.59043793 -27.19140625 34.94921875 C-27.2119826 36.31257244 -27.23297925 37.67591985 -27.25437927 39.03926086 C-27.3095297 42.62471422 -27.35896987 46.21022448 -27.40722656 49.79577637 C-27.45749299 53.4556992 -27.51315219 57.11553957 -27.56835938 60.77539062 C-27.67585497 67.95435915 -27.77682045 75.13339692 -27.875 82.3125 C-34.475 82.3125 -41.075 82.3125 -47.875 82.3125 C-47.904729 79.62540894 -47.904729 79.62540894 -47.93505859 76.8840332 C-48.00290575 70.95672513 -48.07968684 65.02958885 -48.16252708 59.10247517 C-48.21241384 55.50984348 -48.25874423 51.91724011 -48.296875 48.32446289 C-48.33382454 44.85542796 -48.3802101 41.38663441 -48.43306351 37.91780663 C-48.46053897 35.95426204 -48.47831155 33.99058943 -48.49594116 32.02693176 C-48.51581085 30.8260643 -48.53568054 29.62519684 -48.55615234 28.38793945 C-48.56947601 27.33314896 -48.58279968 26.27835846 -48.5965271 25.19160461 C-48.88913334 22.16637671 -49.43567649 19.98888029 -50.875 17.3125 C-53.64658347 16.56186281 -56.01714519 16.3125 -58.875 16.3125 C-59.90509356 19.72926035 -60.0296741 22.89816565 -60.08032227 26.45800781 C-60.10026749 27.69899231 -60.12021271 28.93997681 -60.14076233 30.21856689 C-60.15774393 31.567585 -60.17462283 32.91660441 -60.19140625 34.265625 C-60.21198876 35.64996951 -60.23298557 37.03430792 -60.25437927 38.41864014 C-60.30946607 42.055044 -60.35893414 45.69150333 -60.40722656 49.32800293 C-60.45753964 53.04163525 -60.51317442 56.75518744 -60.56835938 60.46875 C-60.67577704 67.74993206 -60.77725808 75.03118094 -60.875 82.3125 C-64.18748187 82.34138146 -67.49993167 82.35925799 -70.8125 82.375 C-71.75802734 82.38337891 -72.70355469 82.39175781 -73.67773438 82.40039062 C-75.02641602 82.40522461 -75.02641602 82.40522461 -76.40234375 82.41015625 C-77.23499756 82.41539307 -78.06765137 82.42062988 -78.92553711 82.42602539 C-80.875 82.3125 -80.875 82.3125 -81.875 81.3125 C-81.97007821 78.72610962 -82.00056376 76.1665144 -81.98852539 73.57983398 C-81.98867142 72.7701416 -81.98881744 71.96044922 -81.9889679 71.1262207 C-81.98826854 68.43698492 -81.9804751 65.74781751 -81.97265625 63.05859375 C-81.97079215 61.19914284 -81.96936821 59.33969144 -81.96836853 57.48023987 C-81.96454271 52.57620904 -81.95471188 47.67220764 -81.94366455 42.76818848 C-81.93345181 37.76798908 -81.92887121 32.76778494 -81.92382812 27.76757812 C-81.91308967 17.94920372 -81.89549235 8.1308589 -81.875 -1.6875 C-74.945 -1.6875 -68.015 -1.6875 -60.875 -1.6875 C-60.545 0.6225 -60.215 2.9325 -59.875 5.3125 C-59.33875 4.549375 -58.8025 3.78625 -58.25 3 C-54.86127886 -0.83460551 -52.17439972 -2.42850168 -47.03125 -3.0078125 C-42.23189224 -3.18600648 -38.77062519 -3.10332598 -34.375 -1.0625 C-31.59890516 1.57479009 -29.81689506 4.02621606 -27.875 7.3125 C-27.47410156 6.76980469 -27.07320313 6.22710937 -26.66015625 5.66796875 C-19.28854525 -3.60922876 -10.52611483 -6.17837175 0 0 Z " fill="#0C0C0C" transform="translate(418.875,356.6875)"/>
<path d="M0 0 C7.14280375 4.78420439 11.07694171 11.46045533 12.76953125 19.76953125 C13.13175317 23.9713055 13.38944619 28.18113822 13.08203125 32.39453125 C12.08203125 33.39453125 12.08203125 33.39453125 10.13256836 33.50805664 C9.29991455 33.50281982 8.46726074 33.49758301 7.609375 33.4921875 C6.71025391 33.48896484 5.81113281 33.48574219 4.88476562 33.48242188 C3.46647461 33.46985352 3.46647461 33.46985352 2.01953125 33.45703125 C1.07013672 33.45251953 0.12074219 33.44800781 -0.85742188 33.44335938 C-3.2109994 33.43153235 -5.56445352 33.4150515 -7.91796875 33.39453125 C-7.97404297 32.27304687 -7.97404297 32.27304687 -8.03125 31.12890625 C-8.12986328 29.65164063 -8.12986328 29.65164063 -8.23046875 28.14453125 C-8.28847656 27.17 -8.34648438 26.19546875 -8.40625 25.19140625 C-8.97712639 22.07119635 -9.65302014 20.60246742 -11.91796875 18.39453125 C-13.85853416 17.84014754 -13.85853416 17.84014754 -15.91796875 18.01953125 C-16.59859375 18.03242188 -17.27921875 18.0453125 -17.98046875 18.05859375 C-20.2373681 18.31539772 -20.2373681 18.31539772 -22.91796875 20.39453125 C-24.9358883 25.83008334 -24.35812688 32.34045998 -23.16796875 37.89453125 C-21.68205202 40.8663647 -20.86697999 41.07433817 -17.91796875 42.39453125 C-14.7844389 43.98239494 -11.66279219 45.59242751 -8.54296875 47.20703125 C-7.70507812 47.63306641 -6.8671875 48.05910156 -6.00390625 48.49804688 C2.17806648 52.74984245 8.70773421 57.2446865 12.17041016 66.21362305 C13.6852005 71.49916226 13.45090138 76.74225122 13.45703125 82.20703125 C13.48152344 83.34462891 13.50601563 84.48222656 13.53125 85.65429688 C13.56453361 95.26771347 11.42938011 102.71331009 4.8515625 109.890625 C-2.04236037 115.74969852 -11.15656191 117.00318474 -19.91796875 116.39453125 C-28.40925332 115.35356817 -34.94014043 112.23555234 -40.29296875 105.45703125 C-44.41421713 99.85075202 -45.21343497 94.33968845 -45.04296875 87.51953125 C-45.00171875 85.16828125 -44.96046875 82.81703125 -44.91796875 80.39453125 C-38.31796875 80.39453125 -31.71796875 80.39453125 -24.91796875 80.39453125 C-24.28320312 84.984375 -24.28320312 84.984375 -23.6484375 89.57421875 C-23.17131134 92.70691971 -23.17131134 92.70691971 -19.91796875 94.39453125 C-16.34957628 94.9484954 -13.02212995 95.14251142 -9.98046875 93.08203125 C-7.79852563 89.61659217 -7.75532618 86.50666249 -7.73046875 82.51953125 C-7.71628906 81.49085938 -7.70210937 80.4621875 -7.6875 79.40234375 C-8.02758426 74.96395595 -8.83370649 72.42995287 -12.0859375 69.32421875 C-15.33940484 67.10737342 -18.72567366 65.29414445 -22.23046875 63.51953125 C-32.14966866 58.31204133 -38.93307056 53.84729355 -43.91796875 43.39453125 C-45.37140605 38.57507111 -45.18096273 33.70053877 -45.23046875 28.70703125 C-45.25947266 27.75119141 -45.28847656 26.79535156 -45.31835938 25.81054688 C-45.38933252 17.80150072 -43.44643756 11.5428337 -38.66796875 5.08203125 C-29.10102336 -4.26748356 -11.91024816 -5.74207876 0 0 Z " fill="#0D0D0D" transform="translate(85.91796875,323.60546875)"/>
<path d="M0 0 C38 0 38 0 47 4 C49.4375 6.5 49.4375 6.5 51 9 C51.35602295 9.56871826 51.7120459 10.13743652 52.07885742 10.72338867 C54.01401014 15.50613426 53.33146113 21.05437939 53.31567383 26.16186523 C53.31252541 28.29528452 53.335947 30.42730001 53.36132812 32.56054688 C53.36360269 33.93228994 53.36430388 35.30403669 53.36328125 36.67578125 C53.36626221 37.91239502 53.36924316 39.14900879 53.37231445 40.4230957 C52.65604226 47.30447532 49.54720611 51.96120404 45 57 C45.7425 57.165 46.485 57.33 47.25 57.5 C51.61579536 59.88134292 53.08416562 64.08390006 54.53710938 68.71020508 C55.53095842 73.6265079 55.22602328 78.73645867 55.24023438 83.73461914 C55.2499201 85.79549842 55.28096078 87.85537087 55.3125 89.91601562 C55.3457538 98.38326461 55.26784957 104.11390862 49.6875 110.75 C35.3022904 122.7934313 20.99300229 116 0 116 C0 77.72 0 39.44 0 0 Z M12 11 C12 23.87 12 36.74 12 50 C17.32125 50.061875 17.32125 50.061875 22.75 50.125 C23.86213867 50.14320801 24.97427734 50.16141602 26.12011719 50.18017578 C27.4451123 50.18766846 27.4451123 50.18766846 28.796875 50.1953125 C30.14797363 50.21102295 30.14797363 50.21102295 31.52636719 50.22705078 C34.18908822 49.9826439 35.75415647 49.42903331 38 48 C42.08655627 42.4367109 41.51521853 36.04614815 41.5 29.4375 C41.54253906 27.75237305 41.54253906 27.75237305 41.5859375 26.03320312 C41.66045535 19.45986315 41.66045535 19.45986315 38.65625 13.78515625 C35.00498633 11.33129228 32.40892047 10.87630957 28.11328125 10.90234375 C26.845448 10.90609009 26.845448 10.90609009 25.55200195 10.90991211 C24.48296631 10.91901611 23.41393066 10.92812012 22.3125 10.9375 C18.909375 10.958125 15.50625 10.97875 12 11 Z M12 61 C12 75.52 12 90.04 12 105 C15.67125 105.061875 19.3425 105.12375 23.125 105.1875 C24.2711377 105.21481201 25.41727539 105.24212402 26.59814453 105.27026367 C34.28215033 105.39731625 34.28215033 105.39731625 41 102 C43.78556859 96.83826915 43.33176033 90.91552273 43.3125 85.1875 C43.32861328 84.24068359 43.34472656 83.29386719 43.36132812 82.31835938 C43.36558468 76.13359007 42.67707954 70.63951725 40 65 C37.63772045 62.63772045 36.18219103 62.06073034 33 61 C26.07 61 19.14 61 12 61 Z " fill="#0B0B0B" transform="translate(440,322)"/>
<path d="M0 0 C6.65577876 4.0273102 9.88273496 9.58956814 11.76342773 17.11791992 C12.25782926 20.25937624 12.29967844 23.2454214 12.28515625 26.42578125 C12.28265869 27.55024658 12.28016113 28.67471191 12.27758789 29.83325195 C12.26848389 31.24952881 12.25937988 32.66580566 12.25 34.125 C12.229375 38.641875 12.20875 43.15875 12.1875 47.8125 C1.6275 47.8125 -8.9325 47.8125 -19.8125 47.8125 C-19.3175 55.7325 -19.3175 55.7325 -18.8125 63.8125 C-15.5125 63.8125 -12.2125 63.8125 -8.8125 63.8125 C-8.4825 61.1725 -8.1525 58.5325 -7.8125 55.8125 C-5.41658962 55.78537649 -3.02099043 55.7656018 -0.625 55.75 C0.04853516 55.74162109 0.72207031 55.73324219 1.41601562 55.72460938 C5.14184131 55.70643462 8.5663042 55.91950608 12.1875 56.8125 C12.68475805 63.52548362 11.69175552 68.97532784 8.1875 74.8125 C1.69271593 81.4021974 -5.42729156 83.27197775 -14.453125 83.84375 C-23.00361824 83.76421053 -29.73518144 80.54033412 -36 74.8125 C-41.66237767 65.44028869 -41.25784328 54.29204792 -41.14868164 43.70336914 C-41.12500463 41.25048011 -41.12815383 38.79867841 -41.13476562 36.34570312 C-41.09294315 11.47485038 -41.09294315 11.47485038 -32.8125 2.8125 C-24.17181242 -4.32400599 -9.94199862 -4.63959936 0 0 Z M-18.53125 16.84375 C-20.48888667 19.85182586 -20.09736142 22.46253495 -20 26 C-19.97292969 27.27230469 -19.94585937 28.54460937 -19.91796875 29.85546875 C-19.88316406 30.83128906 -19.84835938 31.80710937 -19.8125 32.8125 C-15.8525 32.8125 -11.8925 32.8125 -7.8125 32.8125 C-7.77125 31.100625 -7.73 29.38875 -7.6875 27.625 C-7.66429687 26.66207031 -7.64109375 25.69914062 -7.6171875 24.70703125 C-7.8211456 21.68437222 -8.54375368 19.54480015 -9.8125 16.8125 C-14.30648059 15.63412729 -14.30648059 15.63412729 -18.53125 16.84375 Z " fill="#0E0E0E" transform="translate(245.8125,356.1875)"/>
<path d="M0 0 C8.60415255 8.83784558 7.87787655 20.26832061 7.8125 31.91015625 C7.81130518 33.26110286 7.81085568 34.61205032 7.81111145 35.96299744 C7.80955946 38.77087731 7.8013617 41.57862735 7.7878418 44.38647461 C7.77070543 47.99126882 7.76703233 51.59592301 7.76778698 55.20075321 C7.76751594 57.97931766 7.76204777 60.75785132 7.75478554 63.53640556 C7.75005178 65.51352948 7.74832318 67.49065984 7.74662781 69.4677887 C7.74024796 70.65670212 7.7338681 71.84561554 7.72729492 73.07055664 C7.72157722 74.64747032 7.72157722 74.64747032 7.71574402 76.25624084 C7.58203125 78.625 7.58203125 78.625 6.58203125 79.625 C5.16633002 79.71151611 3.74643625 79.73204904 2.328125 79.72265625 C1.47412109 79.71943359 0.62011719 79.71621094 -0.25976562 79.71289062 C-1.15759766 79.70451172 -2.05542969 79.69613281 -2.98046875 79.6875 C-3.88216797 79.68298828 -4.78386719 79.67847656 -5.71289062 79.67382812 C-7.94798189 79.66200225 -10.18294312 79.6455222 -12.41796875 79.625 C-12.74796875 77.975 -13.07796875 76.325 -13.41796875 74.625 C-14.22234375 75.429375 -15.02671875 76.23375 -15.85546875 77.0625 C-19.77070364 80.28843297 -23.4188599 80.88897935 -28.41796875 80.625 C-34.53202219 79.65643708 -38.32613323 77.40391008 -42.2265625 72.63671875 C-45.34124101 67.37750749 -45.80620964 62.26825236 -45.79296875 56.3125 C-45.79135742 55.5606543 -45.78974609 54.80880859 -45.78808594 54.03417969 C-45.65870894 48.17162576 -44.66578323 43.59821592 -41.41796875 38.625 C-40.84046875 37.696875 -40.26296875 36.76875 -39.66796875 35.8125 C-33.69581918 30.00624348 -26.76010283 28.48157866 -18.66796875 28.5625 C-16.91226562 28.57603516 -16.91226562 28.57603516 -15.12109375 28.58984375 C-14.2290625 28.60144531 -13.33703125 28.61304688 -12.41796875 28.625 C-12.5587319 26.6662957 -12.70573635 24.70803907 -12.85546875 22.75 C-12.93667969 21.65945313 -13.01789063 20.56890625 -13.1015625 19.4453125 C-13.24798578 16.67771029 -13.24798578 16.67771029 -14.41796875 14.625 C-17.7021118 13.67432701 -19.11490283 13.52397803 -22.41796875 14.625 C-23.40796875 17.1 -23.40796875 17.1 -24.41796875 19.625 C-31.01796875 19.625 -37.61796875 19.625 -44.41796875 19.625 C-43.24837798 10.85306919 -42.26551435 4.92746999 -35.48046875 -1.125 C-25.35013162 -8.56769666 -9.59924149 -8.40691465 0 0 Z M-23.41796875 46.625 C-25.7811331 50.51278651 -26.45436099 52.88502443 -26.23046875 57.4375 C-25.68919246 60.69413546 -25.68919246 60.69413546 -23.41796875 62.625 C-20.00258731 63.20869443 -20.00258731 63.20869443 -16.41796875 62.625 C-13.5240476 59.87424103 -12.49585242 58.28934771 -12.02734375 54.29296875 C-12.07375 53.14441406 -12.12015625 51.99585938 -12.16796875 50.8125 C-12.2040625 49.65105469 -12.24015625 48.48960937 -12.27734375 47.29296875 C-12.32375 46.41253906 -12.37015625 45.53210938 -12.41796875 44.625 C-16.57113456 44.56164662 -19.63768893 44.73486009 -23.41796875 46.625 Z " fill="#0F0F0F" transform="translate(315.41796875,359.375)"/>
<path d="M0 0 C4.29 0 8.58 0 13 0 C13 38.28 13 76.56 13 116 C8.71 116 4.42 116 0 116 C-0.33 114.02 -0.66 112.04 -1 110 C-1.680625 110.763125 -2.36125 111.52625 -3.0625 112.3125 C-7.39429531 116.27563188 -11.09848846 117.81890366 -16.9375 118.375 C-23.0756932 118.07818215 -28.04964546 116.41151927 -32.3125 111.875 C-37.77382653 104.58112459 -38.45366993 96.80766344 -38.3984375 87.9375 C-38.40130768 86.90616943 -38.40417786 85.87483887 -38.40713501 84.81225586 C-38.40916541 82.64403734 -38.40370773 80.47580008 -38.39111328 78.30761719 C-38.37504552 75.00934466 -38.3909976 71.7122974 -38.41015625 68.4140625 C-38.40817364 66.29687232 -38.40432959 64.1796829 -38.3984375 62.0625 C-38.40451019 61.08724365 -38.41058289 60.1119873 -38.4168396 59.10717773 C-38.32965535 50.52133977 -36.63192753 42.72702455 -31 36 C-26.30000777 32.65577476 -21.89808724 30.72694041 -16 31 C-9.37411232 32.27334236 -6.40601981 34.49498349 -1 39 C-0.67 26.13 -0.34 13.26 0 0 Z M-20 44 C-23.61595334 47.80626667 -25.11560223 50.36015816 -25.17700195 55.53808594 C-25.18983719 56.47956482 -25.20267242 57.4210437 -25.21589661 58.39105225 C-25.22328354 59.41184875 -25.23067047 60.43264526 -25.23828125 61.484375 C-25.246353 62.53272522 -25.25442474 63.58107544 -25.26274109 64.66119385 C-25.27658934 66.88381289 -25.28730817 69.10645327 -25.29516602 71.32910156 C-25.31236024 74.72241777 -25.35623845 78.11475516 -25.40039062 81.5078125 C-25.41051905 83.6666595 -25.41903468 85.82551478 -25.42578125 87.984375 C-25.44328934 88.99707458 -25.46079742 90.00977417 -25.47883606 91.05316162 C-25.46054547 97.01809782 -25.00156234 100.47027756 -21 105 C-17.09397224 107.32250299 -13.47715964 107.3997464 -9 107 C-5.81540354 105.48007896 -3.26420034 103.71704041 -1 101 C-0.06417973 98.19253918 0.13608096 96.43938323 0.16113281 93.53198242 C0.17074036 92.63062057 0.1803479 91.72925873 0.19024658 90.80058289 C0.19449646 89.82869522 0.19874634 88.85680756 0.203125 87.85546875 C0.21167511 86.35165398 0.21167511 86.35165398 0.22039795 84.81745911 C0.2298466 82.69496719 0.2363814 80.57246062 0.24023438 78.44995117 C0.24993112 75.21051274 0.28095248 71.97171116 0.3125 68.73242188 C0.31903113 66.6692746 0.32428117 64.60612279 0.328125 62.54296875 C0.3404718 61.57715378 0.3528186 60.61133881 0.36553955 59.61625671 C0.34521521 53.44792075 -0.24058524 48.75941476 -4.8125 44.1875 C-10.10179102 41.31617059 -14.52163705 41.76807436 -20 44 Z " fill="#1B1B1B" transform="translate(677,322)"/>
<path d="M0 0 C3.96 0 7.92 0 12 0 C12 38.28 12 76.56 12 116 C8.04 116 4.08 116 0 116 C-0.33 114.02 -0.66 112.04 -1 110 C-1.44730469 110.40992188 -1.89460937 110.81984375 -2.35546875 111.2421875 C-7.99171181 116.26553419 -12.07243724 118.4534319 -19.7265625 118.25 C-25.95081314 117.56554632 -30.0196377 114.64375602 -34 110 C-37.23489545 105.2631888 -38.11196009 101.51738166 -38.19287109 95.83935547 C-38.20893402 94.81083466 -38.22499695 93.78231384 -38.24154663 92.72262573 C-38.28627699 88.01626423 -38.32707526 83.31004039 -38.35009766 78.60351562 C-38.36662811 76.12848489 -38.39387917 73.65350131 -38.43212891 71.17871094 C-38.48717494 67.59545317 -38.50881685 64.0133124 -38.5234375 60.4296875 C-38.54610687 59.33453827 -38.56877625 58.23938904 -38.59213257 57.11105347 C-38.57050017 49.1608035 -36.96865826 42.31920418 -31.45077515 36.31393433 C-26.04919261 31.59567003 -21.04718754 31.6613691 -14.171875 31.71484375 C-7.97467418 32.27198126 -5.2441604 35.7558396 -1 40 C-0.67 26.8 -0.34 13.6 0 0 Z M-24 48 C-26.57451108 52.80404337 -26.30605656 57.58993095 -26.30078125 62.90234375 C-26.30506638 63.85766495 -26.3093515 64.81298615 -26.31376648 65.79725647 C-26.31949838 67.81364145 -26.32001845 69.8300471 -26.31567383 71.84643555 C-26.3125145 74.92337476 -26.33598526 77.99935146 -26.36132812 81.07617188 C-26.36360137 83.03906129 -26.3643045 85.00195328 -26.36328125 86.96484375 C-26.372491 87.88063705 -26.38170074 88.79643036 -26.39118958 89.73997498 C-26.34776885 95.76513591 -25.45865475 100.02912551 -21.5 104.8125 C-18.38804977 107.27612727 -14.91261462 107.34738283 -11.0625 107.26953125 C-7.47968975 106.80132309 -5.61513115 105.43268014 -3 103 C-0.26758204 97.06117735 0.43685032 92.1988572 0.36328125 85.71484375 C0.36377975 84.85492325 0.36427826 83.99500275 0.36479187 83.10902405 C0.36246565 81.30304639 0.35282367 79.49706459 0.33618164 77.69116211 C0.31253523 74.94159702 0.3156388 72.19300082 0.32226562 69.44335938 C0.31668928 67.67968178 0.30957967 65.91600822 0.30078125 64.15234375 C0.30169266 63.33861801 0.30260406 62.52489227 0.30354309 61.68650818 C0.22634508 55.41413883 -0.29815242 50.05094452 -4.4375 45.0625 C-8.13765997 42.31927796 -11.95735219 42.29866824 -16.4375 42.51171875 C-20.27139139 43.24226208 -21.81972773 44.83508863 -24 48 Z " fill="#0E0E0E" transform="translate(612,322)"/>
<path d="M0 0 C6.93 0 13.86 0 21 0 C21 7.92 21 15.84 21 24 C24.3 24 27.6 24 31 24 C31 30.27 31 36.54 31 43 C27.7 43 24.4 43 21 43 C21.33 57.52 21.66 72.04 22 87 C24.97 87 27.94 87 31 87 C31 93.93 31 100.86 31 108 C12.24276364 108.54632727 12.24276364 108.54632727 6.19140625 103.48828125 C-0.30884913 96.55155788 -0.28750466 88.87089065 -0.1953125 79.81640625 C-0.1924826 78.76090073 -0.18965271 77.7053952 -0.18673706 76.61790466 C-0.17559415 73.26598496 -0.15050024 69.91433816 -0.125 66.5625 C-0.1149626 64.28190492 -0.10583808 62.00130562 -0.09765625 59.72070312 C-0.07567412 54.14704322 -0.04225537 48.57354111 0 43 C-2.31 43 -4.62 43 -7 43 C-7 36.73 -7 30.46 -7 24 C-4.69 24 -2.38 24 0 24 C0 16.08 0 8.16 0 0 Z " fill="#0D0D0D" transform="translate(114,331)"/>
<path d="M0 0 C3.96 0 7.92 0 12 0 C14.53368596 6.37352255 16.38018925 12.79489511 18.1015625 19.4296875 C18.5244606 21.03700241 18.5244606 21.03700241 18.9559021 22.67678833 C19.84954182 26.07517277 20.73765769 29.47496632 21.625 32.875 C22.52017723 36.29626749 23.41656046 39.71720635 24.31552124 43.13748169 C24.87324824 45.26029436 25.42867648 47.38371255 25.9815979 49.50778198 C26.23210907 50.46282623 26.48262024 51.41787048 26.74072266 52.40185547 C26.96039703 53.24376434 27.18007141 54.08567322 27.40640259 54.95309448 C27.94494591 57.04022468 27.94494591 57.04022468 29 59 C33.95 39.53 38.9 20.06 44 0 C48.29 0 52.58 0 57 0 C54.19429943 12.21444053 51.13920405 24.34862547 47.9375 36.46484375 C47.4595375 38.27746655 46.98159189 40.0900938 46.50366211 41.90272522 C45.51037341 45.66714088 44.51504093 49.43100968 43.51855469 53.19458008 C42.24858257 57.9927976 40.98667735 62.79309835 39.72660828 67.59392452 C38.7459793 71.32445543 37.75964019 75.05345956 36.77175903 78.78207588 C36.30405161 80.55117629 35.83840757 82.32082368 35.37496948 84.09104729 C28.49910971 110.33074301 28.49910971 110.33074301 21 115 C15.26185049 117.6188957 10.26527038 118.34174202 4 118 C4 114.04 4 110.08 4 106 C5.381875 105.773125 6.76375 105.54625 8.1875 105.3125 C12.8008217 104.26237183 15.11982173 102.89671177 18 99 C19.28192023 96.24624543 20.18641921 93.88472833 21 91 C21.23983109 90.25981628 21.47966217 89.51963257 21.72676086 88.75701904 C24.09841414 79.58804763 21.21399629 71.8867913 18.41796875 63.203125 C17.9219681 61.59964528 17.42829987 59.99544242 16.93684387 58.39056396 C15.64483534 54.191104 14.32468904 50.0010594 12.99725342 45.81268311 C11.13053352 39.90494448 9.30220825 33.98519131 7.47029114 28.06658936 C6.49673998 24.9213758 5.51231573 21.77990511 4.5188446 18.64093018 C4.06743379 17.2010689 3.61608085 15.76118948 3.16479492 14.32128906 C2.77015549 13.07317444 2.37551605 11.82505981 1.96891785 10.53912354 C0.99665569 6.98778438 0.43723842 3.64755006 0 0 Z " fill="#151515" transform="translate(701,355)"/>
<path d="M0 0 C3.96 0 7.92 0 12 0 C12.01458252 1.94285889 12.02916504 3.88571777 12.04418945 5.88745117 C12.09587958 12.31372021 12.16117596 18.73973886 12.23571491 25.16578197 C12.28040223 29.0611024 12.31966173 32.95631864 12.34643555 36.85180664 C12.37248524 40.61268221 12.4128988 44.3731565 12.46318626 48.13378334 C12.47984384 49.56700961 12.49136505 51.00030528 12.49761391 52.43361473 C12.50726611 54.44438081 12.53703652 56.45501962 12.56762695 58.46557617 C12.58428154 60.18099861 12.58428154 60.18099861 12.60127258 61.93107605 C13.04500368 65.34638421 13.97667719 67.2396438 16 70 C20.02599965 72.72516541 24.30725296 72.55307376 29 72 C32.63467079 70.37599816 33.77408696 69.33886956 36 66 C36.32992609 63.02749123 36.32992609 63.02749123 36.31884766 59.60083008 C36.33391609 58.63456947 36.33391609 58.63456947 36.34928894 57.64878845 C36.38014705 55.52237835 36.39716293 53.3960943 36.4140625 51.26953125 C36.43277209 49.79407159 36.45234534 48.31862265 36.4727478 46.84318542 C36.52409736 42.96182575 36.56370781 39.08043137 36.60089111 35.19891357 C36.64091316 31.23733923 36.69201368 27.2759096 36.7421875 23.31445312 C36.83898027 15.54306043 36.92235017 7.77161186 37 0 C41.29 0 45.58 0 50 0 C50 27.39 50 54.78 50 83 C45.71 83 41.42 83 37 83 C36.67 81.35 36.34 79.7 36 78 C34.7315625 79.175625 34.7315625 79.175625 33.4375 80.375 C28.68719375 84.27268718 24.06817841 85.24276839 18 84.875 C12.34722624 84.11157532 8.10523886 82.66299046 4.49609375 78.09765625 C0.76315562 72.38657996 -0.1261988 68.14734951 -0.11352539 61.30371094 C-0.11367142 60.63988403 -0.11381744 59.97605713 -0.1139679 59.29211426 C-0.11327332 57.1061675 -0.10550231 54.92030681 -0.09765625 52.734375 C-0.09579045 51.21551561 -0.09436731 49.69665562 -0.09336853 48.17779541 C-0.0895561 44.18622161 -0.0797367 40.19468438 -0.06866455 36.203125 C-0.05842303 32.1276092 -0.05386504 28.05208747 -0.04882812 23.9765625 C-0.03811327 15.98435825 -0.02105216 7.99218368 0 0 Z " fill="#161616" transform="translate(509,355)"/>
<path d="M0 0 C0 6.93 0 13.86 0 21 C-1.876875 21.2475 -3.75375 21.495 -5.6875 21.75 C-10.4823962 22.55197322 -13.67396648 23.23049535 -17 27 C-18.93615602 30.17567248 -19.26199869 32.60745509 -19.30297852 36.3034668 C-19.31962051 37.36103683 -19.33626251 38.41860687 -19.35340881 39.50822449 C-19.36182297 40.64375259 -19.37023712 41.7792807 -19.37890625 42.94921875 C-19.39590073 44.11757767 -19.4128952 45.28593658 -19.43040466 46.48970032 C-19.48355634 50.22224531 -19.52385502 53.95477878 -19.5625 57.6875 C-19.60636489 61.43087705 -19.65299135 65.17416598 -19.70530701 68.91743469 C-19.73737355 71.247761 -19.76422893 73.57816561 -19.78553772 75.90861511 C-19.79902756 76.95672867 -19.8125174 78.00484222 -19.82641602 79.0847168 C-19.83592789 80.01197067 -19.84543976 80.93922455 -19.85523987 81.89457703 C-20 84 -20 84 -21 85 C-22.40348735 85.09860131 -23.81180477 85.13078937 -25.21875 85.1328125 C-26.49298828 85.13474609 -26.49298828 85.13474609 -27.79296875 85.13671875 C-28.68628906 85.13285156 -29.57960937 85.12898438 -30.5 85.125 C-31.39332031 85.12886719 -32.28664062 85.13273437 -33.20703125 85.13671875 C-34.05652344 85.13542969 -34.90601563 85.13414062 -35.78125 85.1328125 C-36.56564453 85.13168457 -37.35003906 85.13055664 -38.15820312 85.12939453 C-40 85 -40 85 -41 84 C-41.09507821 81.41360962 -41.12556376 78.8540144 -41.11352539 76.26733398 C-41.11367142 75.4576416 -41.11381744 74.64794922 -41.1139679 73.8137207 C-41.11326854 71.12448492 -41.1054751 68.43531751 -41.09765625 65.74609375 C-41.09579215 63.88664284 -41.09436821 62.02719144 -41.09336853 60.16773987 C-41.08954271 55.26370904 -41.07971188 50.35970764 -41.06866455 45.45568848 C-41.05845181 40.45548908 -41.05387121 35.45528494 -41.04882812 30.45507812 C-41.03808967 20.63670372 -41.02049235 10.8183589 -41 1 C-34.07 1 -27.14 1 -20 1 C-19.67 3.64 -19.34 6.28 -19 9 C-18.07767578 8.15115234 -18.07767578 8.15115234 -17.13671875 7.28515625 C-16.32847656 6.55167969 -15.52023438 5.81820313 -14.6875 5.0625 C-13.48673828 3.96615234 -13.48673828 3.96615234 -12.26171875 2.84765625 C-8.02032674 -0.61724603 -5.85169412 0 0 0 Z " fill="#101010" transform="translate(197,354)"/>
</svg>
